<?xml version="1.0" encoding="UTF-8" standalone="no"?>
<svg
   xmlns:dc="http://purl.org/dc/elements/1.1/"
   xmlns:cc="http://creativecommons.org/ns#"
   xmlns:rdf="http://www.w3.org/1999/02/22-rdf-syntax-ns#"
   xmlns:svg="http://www.w3.org/2000/svg"
   xmlns="http://www.w3.org/2000/svg"
   xmlns:sodipodi="http://sodipodi.sourceforge.net/DTD/sodipodi-0.dtd"
   xmlns:inkscape="http://www.inkscape.org/namespaces/inkscape"
   width="1000px"
   height="1000px"
   viewBox="0 0 1000 1000"
   version="1.1"
   id="SVGRoot"
   sodipodi:docname="fb-hover.svg"
   inkscape:version="1.0.1 (3bc2e813f5, 2020-09-07)">
  <defs
     id="defs3414" />
  <sodipodi:namedview
     id="base"
     pagecolor="#ffffff"
     bordercolor="#666666"
     borderopacity="1.0"
     inkscape:pageopacity="0.0"
     inkscape:pageshadow="2"
     inkscape:zoom="0.49497475"
     inkscape:cx="711.71368"
     inkscape:cy="645.70481"
     inkscape:document-units="px"
     inkscape:current-layer="layer1"
     inkscape:document-rotation="0"
     showgrid="false"
     inkscape:window-width="1631"
     inkscape:window-height="1080"
     inkscape:window-x="128"
     inkscape:window-y="1350"
     inkscape:window-maximized="0" />
  <metadata
     id="metadata3417">
    <rdf:RDF>
      <cc:Work
         rdf:about="">
        <dc:format>image/svg+xml</dc:format>
        <dc:type
           rdf:resource="http://purl.org/dc/dcmitype/StillImage" />
        <dc:title></dc:title>
      </cc:Work>
    </rdf:RDF>
  </metadata>
  <g
     inkscape:label="Livello 1"
     inkscape:groupmode="layer"
     id="layer1">
    <path
       id="rect4075"
       style="font-variation-settings:normal;opacity:1;vector-effect:none;fill:#b30095;fill-opacity:1;fill-rule:evenodd;stroke:none;stroke-width:44.1298;stroke-linecap:round;stroke-linejoin:round;stroke-miterlimit:4;stroke-dasharray:none;stroke-dashoffset:0;stroke-opacity:1;paint-order:markers fill stroke;stop-color:#000000;stop-opacity:1"
       d="M 500 85.837891 C 270.55395 85.837891 85.837891 270.55395 85.837891 500 C 85.837891 729.44605 270.55395 914.16211 500 914.16211 C 506.83513 914.16211 513.62882 913.99211 520.38086 913.66797 L 520.38086 576.22461 L 460.90039 576.22461 L 460.90039 503.16211 L 520.38086 503.16211 L 520.38086 485.83203 C 520.38086 422.76009 535.52548 374.83179 565.8125 342.04688 C 596.09952 309.26195 639.50068 292.86914 696.01562 292.86914 C 712.25197 292.86914 728.17524 293.80626 743.78711 295.67969 C 759.39898 297.24087 773.60648 299.11512 786.4082 301.30078 L 786.4082 381.85742 L 781.72461 381.85742 C 773.91868 379.04728 762.67711 376.39243 748.00195 373.89453 C 733.3268 371.0844 720.21294 369.67969 708.66016 369.67969 C 671.50392 369.67969 644.96512 378.10989 629.04102 394.9707 C 613.42915 411.51928 605.62305 441.65006 605.62305 485.36328 L 605.62305 503.16211 L 751.28125 503.16211 L 751.28125 576.22461 L 608.43359 576.22461 L 608.43359 899.93555 C 784.95408 852.50919 914.16211 691.89928 914.16211 500 C 914.16211 270.55395 729.44605 85.837891 500 85.837891 z " />
    <g
       aria-label="f"
       id="text4079"
       style="font-size:959.193px;line-height:1.25;font-family:sans-serif;fill:#ffffff;fill-opacity:1;stroke:none;stroke-width:14.224;stroke-miterlimit:4;stroke-dasharray:none;stroke-opacity:1"
       transform="translate(30.304576,30.304576)" />
  </g>
</svg>
