<?xml version="1.0" encoding="UTF-8" standalone="no"?>
<svg
   xmlns:dc="http://purl.org/dc/elements/1.1/"
   xmlns:cc="http://creativecommons.org/ns#"
   xmlns:rdf="http://www.w3.org/1999/02/22-rdf-syntax-ns#"
   xmlns:svg="http://www.w3.org/2000/svg"
   xmlns="http://www.w3.org/2000/svg"
   xmlns:sodipodi="http://sodipodi.sourceforge.net/DTD/sodipodi-0.dtd"
   xmlns:inkscape="http://www.inkscape.org/namespaces/inkscape"
   width="1000px"
   height="1000px"
   viewBox="0 0 1000 1000"
   version="1.1"
   id="SVGRoot"
   sodipodi:docname="ig-hover.svg"
   inkscape:version="1.0.1 (3bc2e813f5, 2020-09-07)">
  <defs
     id="defs3414" />
  <sodipodi:namedview
     id="base"
     pagecolor="#ffffff"
     bordercolor="#666666"
     borderopacity="1.0"
     inkscape:pageopacity="0.0"
     inkscape:pageshadow="2"
     inkscape:zoom="0.49497475"
     inkscape:cx="514.33468"
     inkscape:cy="483.73975"
     inkscape:document-units="px"
     inkscape:current-layer="layer1"
     inkscape:document-rotation="0"
     showgrid="false"
     inkscape:window-width="1631"
     inkscape:window-height="1080"
     inkscape:window-x="128"
     inkscape:window-y="1350"
     inkscape:window-maximized="0" />
  <metadata
     id="metadata3417">
    <rdf:RDF>
      <cc:Work
         rdf:about="">
        <dc:format>image/svg+xml</dc:format>
        <dc:type
           rdf:resource="http://purl.org/dc/dcmitype/StillImage" />
        <dc:title></dc:title>
      </cc:Work>
    </rdf:RDF>
  </metadata>
  <g
     inkscape:label="Livello 1"
     inkscape:groupmode="layer"
     id="layer1">
    <path
       id="rect3988"
       style="opacity:1;fill:#b30095;fill-rule:evenodd;stroke-width:8.08063;stroke-linecap:round;stroke-linejoin:round;paint-order:markers fill stroke;stop-color:#000000;fill-opacity:1"
       d="M 320 85.714844 C 190.20571 85.714844 85.714844 190.20571 85.714844 320 L 85.714844 680 C 85.714844 809.79429 190.20571 914.28516 320 914.28516 L 680 914.28516 C 809.79429 914.28516 914.28516 809.79429 914.28516 680 L 914.28516 320 C 914.28516 190.20571 809.79429 85.714844 680 85.714844 L 320 85.714844 z M 353.12695 177.48438 L 646.87305 177.48438 C 743.71061 177.48436 822.51562 256.28939 822.51562 353.12695 L 822.51562 646.87305 C 822.51562 743.71061 743.71061 822.51562 646.87305 822.51562 L 353.12695 822.51562 C 256.28939 822.51562 177.48436 743.71061 177.48438 646.87305 L 177.48438 353.12695 C 177.48437 256.28939 256.28939 177.48436 353.12695 177.48438 z M 353.12695 231.62695 C 285.34739 231.62695 231.62695 285.34739 231.62695 353.12695 L 231.62695 646.87305 C 231.62695 714.65261 285.34739 768.37305 353.12695 768.37305 L 646.87305 768.37305 C 714.65261 768.37305 768.37305 714.65261 768.37305 646.87305 L 768.37305 353.12695 C 768.37305 285.34739 714.65261 231.62695 646.87305 231.62695 L 353.12695 231.62695 z M 642.32617 281.83203 A 39.39595 39.39595 0 0 1 642.45703 281.83203 A 39.39595 39.39595 0 0 1 681.85352 321.22852 A 39.39595 39.39595 0 0 1 642.45703 360.625 A 39.39595 39.39595 0 0 1 603.06055 321.22852 A 39.39595 39.39595 0 0 1 642.32617 281.83203 z M 500 352.61719 C 581.26881 352.61719 647.38281 418.73119 647.38281 500 C 647.38281 581.26881 581.26881 647.38281 500 647.38281 C 418.73119 647.38281 352.61719 581.26881 352.61719 500 C 352.61719 418.73119 418.73119 352.61719 500 352.61719 z M 500 396.74609 C 442.41577 396.74609 396.74609 442.41577 396.74609 500 C 396.74609 557.58423 442.41577 603.25391 500 603.25391 C 557.58423 603.25391 603.25391 557.58423 603.25391 500 C 603.25391 442.41577 557.58423 396.74609 500 396.74609 z " />
  </g>
</svg>
