<?xml version="1.0" encoding="UTF-8" standalone="no"?>
<svg
   xmlns:dc="http://purl.org/dc/elements/1.1/"
   xmlns:cc="http://creativecommons.org/ns#"
   xmlns:rdf="http://www.w3.org/1999/02/22-rdf-syntax-ns#"
   xmlns:svg="http://www.w3.org/2000/svg"
   xmlns="http://www.w3.org/2000/svg"
   xmlns:sodipodi="http://sodipodi.sourceforge.net/DTD/sodipodi-0.dtd"
   xmlns:inkscape="http://www.inkscape.org/namespaces/inkscape"
   width="500px"
   height="500px"
   viewBox="0 0 500 500"
   version="1.1"
   id="SVGRoot"
   sodipodi:docname="logo.svg"
   inkscape:version="1.0.1 (3bc2e813f5, 2020-09-07)">
  <defs
     id="defs20221" />
  <sodipodi:namedview
     id="base"
     pagecolor="#ffffff"
     bordercolor="#666666"
     borderopacity="1.0"
     inkscape:pageopacity="0.0"
     inkscape:pageshadow="2"
     inkscape:zoom="2.8"
     inkscape:cx="320.50873"
     inkscape:cy="267.52249"
     inkscape:document-units="px"
     inkscape:current-layer="g54310"
     inkscape:document-rotation="0"
     showgrid="false"
     inkscape:window-width="1631"
     inkscape:window-height="1030"
     inkscape:window-x="64"
     inkscape:window-y="0"
     inkscape:window-maximized="0" />
  <metadata
     id="metadata20224">
    <rdf:RDF>
      <cc:Work
         rdf:about="">
        <dc:format>image/svg+xml</dc:format>
        <dc:type
           rdf:resource="http://purl.org/dc/dcmitype/StillImage" />
        <dc:title />
      </cc:Work>
    </rdf:RDF>
  </metadata>
  <g
     inkscape:label="Livello 1"
     inkscape:groupmode="layer"
     id="layer1">
    <g
       id="g54310"
       transform="matrix(39.568104,0,0,39.568104,-4651.545,606.61894)">
      <path
         class="st0"
         d="m 119.54348,-3.4062214 c -0.70321,0 -1.27386,-0.570642 -1.27386,-1.27388 v -8.6653606 c 0,-0.703219 0.57065,-1.273893 1.27386,-1.273893 h 8.66538 c 0.70321,0 1.27385,0.570674 1.27385,1.273893 v 8.6653606 c 0,0.703238 -0.57064,1.27388 -1.27385,1.27388 z"
         id="path1410-6-7"
         style="fill:#000000;fill-opacity:1;stroke:none;stroke-width:0.762;stroke-miterlimit:10;stroke-dasharray:none;stroke-opacity:1" />
      <path
         id="polygon1428-4-6"
         style="fill:#ffffff;fill-opacity:1;stroke-width:0.0989832"
         d="m 128.37095,-7.8272818 -0.38505,-1.071988 h -0.80726 l 0.39296,1.071988 z"
         class="st1"
         sodipodi:nodetypes="ccccc" />
      <path
         id="path1430-6-9"
         style="fill:#ffffff;fill-opacity:1;stroke-width:0.0989831"
         d="m 125.82739,-13.289103 c -1.19472,2.432023 -2.38933,4.863149 -3.58407,7.2951729 -0.49392,-0.967044 -0.98687,-1.9331239 -1.48079,-2.8992171 h -0.99904 l 2.00673,4.1591737 h 0.78866 c 0.72555,-1.4797975 1.45095,-2.9594813 2.17749,-4.4383042 0.0992,-0.2022908 0.19857,-0.4046954 0.2978,-0.6069836 h 1.7909 c 0.0852,0.2214384 0.17026,0.4430073 0.25545,0.6643567 h 0.91161 l -1.6215,-4.1741984 z m 0.21083,1.464862 c 0.17757,0.461381 0.35519,0.923085 0.53276,1.384723 h -1.2126 c 0.2265,-0.461541 0.45294,-0.923172 0.67984,-1.384723 z" />
      <path
         id="path1434-8-9"
         style="fill:#ffffff;fill-opacity:1;stroke-width:3.91657"
         d="M 87.234375 80.751953 L 87.234375 247.625 L 125.57227 247.625 L 124.9082 200.66406 C 129.25555 201.76445 146.05859 200.31641 146.05859 200.31641 L 184.36133 247.66602 L 224.34961 247.66602 L 178.64453 191.15039 C 178.64453 191.15039 206.8048 177.40224 215.53906 155.19531 C 221.53561 139.96029 216.95049 124.41184 215.93359 121.16211 C 208.21781 96.995379 181.4299 80.388797 149.31445 81.173828 C 128.59541 81.025052 107.91425 80.910226 87.234375 80.751953 z M 87.234375 247.625 L 87.230469 247.625 L 87.234375 247.67578 L 87.234375 247.625 z M 144.13867 98.916016 C 149.12307 98.90281 154.11268 99.611215 158.60742 101.04297 C 163.10196 102.47478 166.74405 104.49466 169.34961 106.99414 C 171.95556 109.49362 173.52344 112.47406 173.52344 115.65039 A 1.1971081 1.1971081 0 0 1 172.28516 116.88672 L 116.25586 117.04102 A 1.1971081 1.1971081 0 0 1 115.01953 115.80469 C 114.96493 112.62863 116.47347 109.66465 119.03906 107.14844 C 121.60466 104.63222 125.23195 102.57724 129.70312 101.12109 C 134.17412 99.664897 139.15428 98.929221 144.13867 98.916016 z M 144.13672 101.28906 C 139.402 101.30287 134.67355 101.99441 130.47656 103.36133 C 126.27957 104.72817 122.96119 106.67123 120.74023 108.84961 C 118.88766 110.6665 118.23915 112.65014 117.95703 114.64453 L 170.58594 114.49023 C 170.27018 112.49406 169.61436 110.50631 167.72656 108.69531 C 165.46485 106.52587 162.05551 104.63004 157.83398 103.28516 C 153.61207 101.94028 148.87144 101.27525 144.13672 101.28906 z M 134.10938 118.74023 C 136.03554 118.74023 137.29776 120.0643 138.35938 121.06055 C 139.42098 122.05675 140.2563 122.75977 140.98633 122.75977 C 141.69578 122.75977 142.57024 122.11761 143.61523 121.13672 C 144.66023 120.15583 145.88072 118.81836 147.78711 118.81836 C 149.64444 118.81836 150.8766 120.11602 151.88281 121.06055 C 152.88943 122.00504 153.69663 122.60547 154.35742 122.60547 C 155.0554 122.60547 155.87154 121.95382 156.90625 120.98242 C 157.94096 120.01106 159.18635 118.74023 161.08008 118.74023 C 162.95996 118.74023 164.23068 120.02167 165.25391 120.98242 C 166.27674 121.94321 167.04401 122.52734 167.72656 122.52734 C 167.75189 122.52734 168.53831 122.24619 169.11719 121.83203 C 169.69646 121.41787 170.12109 120.98242 170.12109 120.98242 A 1.1969885 1.1969885 0 0 1 171.82227 121.06055 A 1.1969885 1.1969885 0 0 1 171.74609 122.75977 C 171.74609 122.75977 171.23349 123.24462 170.50781 123.76367 C 169.78213 124.28273 168.94724 124.92383 167.72656 124.92383 C 165.84708 124.92383 164.57557 123.64228 163.55273 122.68164 C 162.5295 121.72101 161.76381 121.13672 161.08008 121.13672 C 160.38328 121.13672 159.5644 121.78833 158.5293 122.75977 C 157.49459 123.7312 156.25155 125 154.35742 125 C 152.4997 125 151.26833 123.70445 150.26172 122.75977 C 149.25511 121.81512 148.44631 121.21484 147.78711 121.21484 C 147.07805 121.21484 146.28327 121.857 145.23828 122.83789 C 144.19289 123.81878 142.89272 125.15625 140.98633 125.15625 C 139.05936 125.15625 137.79794 123.83422 136.73633 122.83789 C 135.67472 121.84153 134.83781 121.13672 134.10938 121.13672 C 133.40625 121.13672 132.59844 121.78362 131.55859 122.75977 C 130.51874 123.73595 129.20865 125.07813 127.30859 125.07812 C 125.50943 125.07812 124.32553 123.8144 123.36719 122.91406 C 122.40885 122.01369 121.72287 121.44318 121.125 121.44531 C 121.06209 121.44571 120.19853 121.76376 119.58008 122.21875 C 118.96123 122.67378 118.49805 123.14648 118.49805 123.14648 A 1.1969885 1.1969885 0 0 1 116.79883 123.14648 A 1.1969885 1.1969885 0 0 1 116.875 121.44531 C 116.875 121.44531 117.42421 120.84993 118.18945 120.28711 C 118.9547 119.72433 119.85447 119.05869 121.125 119.05078 C 122.92495 119.04437 124.10767 120.31388 125.06641 121.21484 C 126.02514 122.11581 126.70953 122.68164 127.30859 122.68164 C 128.01211 122.68164 128.8957 122.03665 129.93555 121.06055 C 130.9754 120.0844 132.20931 118.74023 134.10938 118.74023 z M 169.30273 127.14453 C 170.82611 127.14453 172.05273 128.37235 172.05273 129.89453 C 172.05273 131.41672 171.31578 132.38602 169.83594 132.74609 C 169.83594 132.74609 167.1377 132.63877 166.44922 133.33398 C 165.95275 133.83304 165.87752 135.14254 165.86523 135.62109 L 171.67383 135.62109 C 174.53856 135.62109 176.8418 137.9258 176.8418 140.78906 C 176.8418 143.65221 174.53539 145.95703 171.67383 145.95703 L 119.53516 145.95703 C 116.67043 145.95703 114.36719 143.65233 114.36719 140.78906 C 114.36719 137.92591 116.67359 135.62109 119.53516 135.62109 L 124.10156 135.62109 C 124.22466 134.79914 124.2596 133.68237 123.56055 133.17773 C 122.40832 132.34364 118.99805 132.64453 118.99805 132.64453 C 117.48655 132.45025 116.67969 131.42258 116.67969 129.90039 C 116.67969 128.37821 117.90241 127.15039 119.42578 127.15039 L 169.30273 127.14453 z M 157.5918 132.61328 C 156.78697 132.59064 155.98925 132.79948 155.45508 133.2832 C 154.79718 133.8788 154.55708 134.70486 154.50781 135.62109 L 160.40625 135.62109 C 160.35231 134.5222 160.40727 133.83321 159.77539 133.33398 C 159.20858 132.89003 158.39663 132.63592 157.5918 132.61328 z M 138.28516 132.82812 C 134.99272 132.82437 131.74892 132.89294 129.41797 133.01758 C 128.62367 133.05953 128.70767 134.58357 128.8457 135.62109 L 148.42969 135.62109 C 148.4154 134.24152 148.21338 133.11866 147.44727 133.07031 C 144.91867 132.90808 141.57759 132.83191 138.28516 132.82812 z M 116.16406 148.88086 A 1.1971083 1.1971083 0 0 1 116.25586 148.88086 L 172.28516 149.03516 A 1.1971083 1.1971083 0 0 1 173.52344 150.27148 C 173.52344 156.63495 167.69604 164.2771 158.5293 167.19727 C 149.50025 170.07379 138.60199 169.4751 129.70312 166.57812 C 120.62343 163.62096 114.91032 156.39739 115.01953 150.04102 A 1.1971083 1.1971083 0 0 1 116.16406 148.88086 z M 118.49805 151.27734 C 119.15963 155.93716 122.89967 161.7921 130.47656 164.25977 C 138.91486 167.00682 149.35434 167.55612 157.75781 164.87891 C 165.36241 162.45639 169.30935 156.16422 170.04492 151.43164 L 118.49805 151.27734 z "
         transform="matrix(0.02527288,0,0,0.02527288,117.55795,-15.331009)" />
      <path
         id="path1436-0-0"
         style="fill:#ffffff;fill-opacity:1;stroke-width:0.0989831"
         d="m 125.84105,-8.899066 c -0.681,1.3867746 -1.36307,2.7733235 -2.04407,4.1600822 l 0.93074,0.0059 c 0.11361,-0.2315471 0.22743,-0.4633021 0.34106,-0.694865 h 1.75537 c 0.0903,0.2346619 0.18066,0.4694102 0.27094,0.7039717 h 0.91207 l -1.62242,-4.1751103 z m 0.21174,1.4657721 c 0.17248,0.448155 0.34479,0.8967109 0.51728,1.3451081 h -1.17754 c 0.22005,-0.4483532 0.43984,-0.8963848 0.66026,-1.3451081 z" />
    </g>
  </g>
</svg>
